<?xml version="1.0" encoding="UTF-8"?>
<svg id="Layer_1" xmlns="http://www.w3.org/2000/svg" version="1.1" viewBox="0 0 612 166.72">
  <!-- Generator: Adobe Illustrator 29.0.0, SVG Export Plug-In . SVG Version: 2.1.0 Build 186)  -->
  <defs>
    <style>
      .st0 {
        fill: #aba944;
      }

      .st1 {
        fill: #4c626b;
      }
    </style>
  </defs>
  <path class="st0" d="M130.55,84.34s-12.55.88-31.34,19.67c-19.75,19.75-19.67,31.34-19.67,31.34,0,0-1.29-11.6-20.24-30.55-19.09-19.09-30.77-20.46-30.77-20.46,0,0,13.71-2.63,31.04-19.96,17.14-17.14,19.96-31.04,19.96-31.04,0,0,1.14,12.93,19.72,31.51,20.22,20.22,31.29,19.5,31.29,19.5Z"/>
  <path class="st1" d="M146.4,33.56c-1.61,0-2.92,1.31-2.92,2.92v96.67c0,1.61,1.31,2.92,2.92,2.92s2.92-1.31,2.92-2.92V36.48c0-1.61-1.31-2.92-2.92-2.92Z"/>
  <g>
    <path d="M177.7,115.53h-.09l-5.43,9.62-5.43-9.62h-.09v13.99h-1.31v-15.72h1.85l4.98,8.85h.07l4.98-8.85h1.78v15.72h-1.31v-13.99Z"/>
    <path d="M191.26,129.52c-.5,0-.86-.13-1.08-.38s-.35-.6-.38-1.04v-.4h-.11c-.26.65-.68,1.16-1.26,1.53s-1.33.56-2.23.56c-1.22,0-2.15-.3-2.82-.89s-.99-1.43-.99-2.52c0-1.02.36-1.84,1.09-2.44.73-.6,1.93-.9,3.59-.9h2.66v-1.35c0-1.91-.98-2.86-2.95-2.86-.77,0-1.4.16-1.91.48-.51.32-.92.79-1.24,1.39l-.81-.67c.32-.67.8-1.22,1.45-1.65s1.51-.65,2.56-.65c1.35,0,2.39.34,3.11,1.02.72.68,1.08,1.62,1.08,2.84v6.84h1.55v1.1h-1.31ZM186.37,128.68c.47,0,.9-.06,1.31-.18.41-.12.76-.29,1.07-.51s.55-.48.72-.79.26-.66.26-1.05v-2.15h-2.7c-1.16,0-1.99.19-2.51.56-.52.37-.78.88-.78,1.53v.54c0,.68.24,1.19.72,1.54.48.35,1.12.52,1.91.52Z"/>
    <path d="M202.66,127.67h-.07c-.3.65-.74,1.16-1.32,1.54s-1.31.57-2.2.57c-1.49,0-2.65-.53-3.49-1.58-.84-1.05-1.26-2.54-1.26-4.46s.42-3.41,1.26-4.46,2-1.58,3.49-1.58c.89,0,1.62.19,2.21.57.59.38,1.02.9,1.31,1.54h.07v-6.98h1.28v16.67h-1.28v-1.85ZM199.37,128.64c.45,0,.87-.06,1.27-.18.4-.12.75-.3,1.05-.53.3-.23.54-.51.71-.83.17-.32.26-.69.26-1.09v-4.57c0-.38-.09-.72-.26-1.04-.17-.32-.41-.59-.71-.81-.3-.22-.65-.4-1.05-.53-.4-.13-.82-.19-1.27-.19-1.16,0-2.06.37-2.7,1.1-.65.74-.97,1.73-.97,2.97v1.62c0,1.25.32,2.24.97,2.97.65.74,1.55,1.1,2.7,1.1Z"/>
    <path d="M212.25,129.79c-.77,0-1.46-.13-2.08-.41-.62-.27-1.16-.66-1.6-1.18-.44-.52-.78-1.15-1.01-1.9-.23-.75-.35-1.6-.35-2.54s.12-1.79.35-2.53c.23-.74.57-1.37,1.01-1.89.44-.52.97-.92,1.59-1.19.62-.28,1.31-.42,2.07-.42s1.4.14,2,.42c.6.28,1.11.67,1.53,1.16.42.5.75,1.1.98,1.8.23.7.35,1.47.35,2.32v.61h-8.54v.56c0,.6.09,1.15.26,1.66s.42.93.74,1.3c.32.36.72.64,1.18.84.47.2.99.3,1.58.3,1.68,0,2.85-.77,3.49-2.32l.95.63c-.36.85-.93,1.53-1.7,2.04-.77.51-1.71.76-2.8.76ZM212.23,118.82c-.56,0-1.06.1-1.51.3-.45.2-.84.48-1.16.84-.32.36-.57.79-.74,1.3s-.26,1.05-.26,1.66v.11h7.14v-.18c0-.6-.08-1.15-.25-1.66-.17-.5-.4-.93-.71-1.27s-.68-.62-1.1-.81-.9-.29-1.41-.29Z"/>
    <path d="M225.68,112.85h1.28v6.98h.07c.29-.65.72-1.16,1.31-1.54.59-.38,1.32-.57,2.21-.57,1.49,0,2.65.53,3.49,1.58s1.26,2.54,1.26,4.46-.42,3.41-1.26,4.46c-.84,1.05-2,1.58-3.49,1.58-.89,0-1.61-.19-2.18-.57s-1.01-.9-1.33-1.54h-.07v1.85h-1.28v-16.67ZM230.25,128.64c1.16,0,2.06-.37,2.7-1.1.65-.74.97-1.73.97-2.97v-1.62c0-1.25-.32-2.24-.97-2.97-.65-.74-1.55-1.1-2.7-1.1-.45,0-.88.06-1.27.19s-.75.3-1.05.53c-.3.23-.54.5-.71.81-.17.31-.26.66-.26,1.04v4.57c0,.41.09.77.26,1.09.17.32.41.6.71.83.3.23.65.41,1.05.53.4.12.82.18,1.27.18Z"/>
    <path d="M245.38,117.99h1.31l-5.34,14.78c-.18.48-.4.81-.65.99s-.68.27-1.26.27h-1.31v-1.1h1.94l1.1-3.05-4.28-11.89h1.35l3.54,10.18h.09l3.51-10.18Z"/>
    <path d="M261.8,127.69h-.09c-.11.27-.25.53-.43.79-.18.26-.41.48-.68.66-.27.19-.59.34-.96.46-.37.12-.8.18-1.3.18-1.23,0-2.19-.38-2.88-1.14-.69-.76-1.04-1.84-1.04-3.25v-7.41h1.28v7.16c0,1.19.25,2.06.77,2.63.51.57,1.25.86,2.21.86.41,0,.79-.05,1.16-.16.37-.1.7-.26.99-.47.29-.21.53-.48.7-.8.17-.32.26-.7.26-1.14v-8.09h1.28v11.53h-1.28v-1.82Z"/>
    <path d="M270.54,129.79c-1.01,0-1.87-.19-2.58-.56s-1.33-.92-1.86-1.64l.95-.74c.48.63,1.01,1.1,1.58,1.4.57.3,1.24.45,2,.45.89,0,1.57-.19,2.05-.56.48-.38.72-.92.72-1.62,0-.62-.18-1.1-.55-1.45-.37-.35-.97-.59-1.81-.71l-.95-.16c-.53-.08-1.01-.19-1.44-.34s-.81-.35-1.11-.61c-.31-.26-.55-.57-.72-.93s-.26-.81-.26-1.34.1-1.01.3-1.42.48-.74.82-1.01.76-.47,1.24-.61c.48-.14,1-.2,1.55-.2.96,0,1.75.17,2.36.49.62.33,1.14.76,1.58,1.28l-.86.79c-.3-.36-.7-.69-1.21-1-.5-.31-1.15-.46-1.95-.46s-1.47.18-1.93.54c-.46.36-.69.87-.69,1.53s.21,1.16.62,1.46c.41.3,1.03.52,1.86.65l.92.14c1.17.18,2.04.53,2.6,1.05s.84,1.24.84,2.17c0,1.08-.36,1.92-1.09,2.52-.73.6-1.73.9-3.01.9Z"/>
    <path d="M283.88,119.09h-1.98v-1.1h1.98v-3.22c0-.59.15-1.05.44-1.4s.75-.52,1.36-.52h2.03v1.1h-2.55v4.03h2.55v1.1h-2.55v10.43h-1.28v-10.43Z"/>
    <path d="M294.3,129.79c-.77,0-1.46-.13-2.07-.41-.62-.27-1.14-.66-1.58-1.18-.44-.52-.77-1.15-1.01-1.9-.24-.75-.36-1.6-.36-2.54s.12-1.79.36-2.53c.24-.74.58-1.37,1.01-1.89.44-.52.96-.92,1.58-1.19.62-.28,1.31-.42,2.07-.42s1.46.14,2.07.42c.62.28,1.14.68,1.58,1.19.44.52.77,1.15,1.01,1.89.24.74.36,1.59.36,2.53s-.12,1.79-.36,2.54c-.24.75-.58,1.39-1.01,1.9-.44.52-.96.91-1.58,1.18-.62.27-1.31.41-2.07.41ZM294.3,128.64c1.13,0,2.02-.35,2.67-1.06.65-.71.98-1.74.98-3.11v-1.44c0-1.35-.33-2.38-.98-3.1-.65-.71-1.54-1.07-2.67-1.07s-2.02.35-2.67,1.06-.98,1.74-.98,3.11v1.44c0,1.35.33,2.38.98,3.1.65.71,1.54,1.07,2.67,1.07Z"/>
    <path d="M302.59,129.52v-11.53h1.28v2.07h.09c.23-.54.61-1.02,1.15-1.44s1.31-.63,2.3-.63h.77v1.26h-1.01c-.96,0-1.75.21-2.37.63-.62.42-.92,1.01-.92,1.76v7.88h-1.28Z"/>
    <path d="M322.84,117.99h1.31l-5.34,14.78c-.18.48-.4.81-.65.99s-.68.27-1.26.27h-1.31v-1.1h1.94l1.1-3.05-4.28-11.89h1.35l3.54,10.18h.09l3.51-10.18Z"/>
    <path d="M330.68,129.79c-.77,0-1.46-.13-2.07-.41-.62-.27-1.14-.66-1.58-1.18-.44-.52-.77-1.15-1.01-1.9-.24-.75-.36-1.6-.36-2.54s.12-1.79.36-2.53c.24-.74.58-1.37,1.01-1.89.44-.52.96-.92,1.58-1.19.62-.28,1.31-.42,2.07-.42s1.46.14,2.07.42c.62.28,1.14.68,1.58,1.19.43.52.77,1.15,1.01,1.89.24.74.36,1.59.36,2.53s-.12,1.79-.36,2.54c-.24.75-.58,1.39-1.01,1.9-.44.52-.96.91-1.58,1.18-.62.27-1.31.41-2.07.41ZM330.68,128.64c1.13,0,2.02-.35,2.67-1.06s.98-1.74.98-3.11v-1.44c0-1.35-.33-2.38-.98-3.1-.65-.71-1.54-1.07-2.67-1.07s-2.02.35-2.67,1.06c-.65.71-.98,1.74-.98,3.11v1.44c0,1.35.33,2.38.98,3.1.65.71,1.54,1.07,2.67,1.07Z"/>
    <path d="M346.18,127.69h-.09c-.11.27-.25.53-.43.79-.18.26-.4.48-.67.66-.27.19-.59.34-.96.46s-.8.18-1.3.18c-1.23,0-2.19-.38-2.88-1.14-.69-.76-1.04-1.84-1.04-3.25v-7.41h1.28v7.16c0,1.19.26,2.06.77,2.63.51.57,1.25.86,2.21.86.41,0,.79-.05,1.16-.16.37-.1.7-.26.99-.47.29-.21.53-.48.7-.8.17-.32.26-.7.26-1.14v-8.09h1.28v11.53h-1.28v-1.82Z"/>
  </g>
  <g>
    <path class="st1" d="M195.44,68.5c0,4.22-1.61,7.82-4.82,10.79-3.22,2.97-7.08,4.46-11.6,4.46-2.65,0-5.82-.81-9.5-2.43-.98-.44-1.72-.66-2.21-.66-.59,0-.96.68-1.1,2.04-.05.7-.37,1.05-.96,1.05-.49,0-.74-.29-.74-.88,0-.39.02-.69.07-.88.39-2.99.59-5.77.59-8.32,0-.49-.05-1.87-.15-4.12-.05-.29-.07-.69-.07-1.18,0-.74.29-1.1.88-1.1.49,0,.83.59,1.03,1.78,1.28,8.83,5.42,13.24,12.45,13.24,2.99,0,5.31-.85,6.96-2.54,1.64-1.69,2.47-4.09,2.47-7.18,0-2.75-.8-5.09-2.39-7.03-1.6-1.94-4.33-3.87-8.21-5.78-4.66-2.31-7.91-4.54-9.72-6.7-1.82-2.16-2.72-4.83-2.72-8.03,0-4.07,1.31-7.44,3.94-10.09,2.63-2.65,5.95-3.98,9.98-3.98,1.67,0,3.98.56,6.92,1.69,1.03.39,1.79.59,2.28.59.54,0,.9-.1,1.07-.29.17-.2.33-.71.48-1.55.1-.49.37-.74.81-.74.49,0,.74.29.74.88,0,.39-.03.69-.07.88-.15,1.18-.22,2.6-.22,4.27,0,2.36.12,4.22.37,5.6l.07,1.18c.05.54-.17.81-.66.81-.54,0-.91-.56-1.1-1.69-.54-2.9-1.82-5.31-3.83-7.25-2.01-1.94-4.27-2.91-6.77-2.91s-4.41.79-5.85,2.36c-1.45,1.57-2.17,3.71-2.17,6.41,0,3.14,1.06,5.67,3.17,7.59,1.18,1.08,3.73,2.6,7.66,4.57,4.61,2.31,7.93,4.65,9.94,7.03,2.01,2.38,3.02,5.09,3.02,8.14Z"/>
    <path class="st1" d="M219.89,78.52c0,.44-.61,1.23-1.84,2.36-2.11,1.91-4.62,2.87-7.51,2.87-2.7,0-4.74-.69-6.11-2.06-.79-.78-1.18-3.09-1.18-6.91v-21.9c-.05-.49-.32-.76-.81-.81h-2.8c-1.08,0-1.62-.17-1.62-.52s.27-.54.8-.59c3.8-.35,6.78-2.23,8.93-5.66.29-.45.66-.67,1.1-.67.34,0,.51.17.51.52v1.55c0,2.06.1,3.39.29,3.98.44.1,1.18.15,2.21.15,2.7,0,4.49-.12,5.38-.37.2-.05.37-.07.52-.07.39,0,.59.21.59.64,0,.71-1.99,1.06-5.97,1.06h-3.02v13.62c0,6.87.17,11.18.52,12.92.34,1.74,1.47,2.61,3.39,2.61,1.62,0,3.44-.91,5.45-2.72.2-.25.42-.37.66-.37.34,0,.52.12.52.37Z"/>
    <path class="st1" d="M248.24,74.83c0,.49-.38,1.36-1.14,2.61-.76,1.25-1.53,2.27-2.32,3.06-2.11,2.16-4.93,3.24-8.47,3.24-4.42,0-8.11-1.6-11.08-4.79-2.97-3.19-4.46-7.14-4.46-11.86s1.41-9.01,4.23-12.3c2.82-3.29,6.35-4.93,10.57-4.93,3.49,0,6.41,1.02,8.76,3.06,2.36,2.04,3.61,4.65,3.76,7.84-1.57.25-3.66.34-6.26.29h-5.16c-.34,0-3.29.07-8.84.22-.25,1.62-.37,3.16-.37,4.62,0,4.94.94,8.74,2.84,11.41,1.89,2.67,4.55,4,7.99,4,1.96,0,3.54-.44,4.71-1.33s2.45-2.58,3.83-5.08c.2-.39.47-.59.81-.59.39,0,.59.17.59.52ZM241.84,59.81c-.2-5.89-2.31-8.84-6.33-8.84s-6.46,2.95-7.44,8.84h13.77Z"/>
    <path class="st1" d="M283.96,66.51c0,4.91-1.39,9.01-4.17,12.3-2.78,3.29-6.24,4.93-10.38,4.93-3.25,0-5.76-1.18-7.54-3.53v17.16c0,1.08.04,1.72.11,1.92.07.19.31.37.71.52.75.15,2.19.22,4.32.22.6,0,.89.22.89.66,0,.34-.32.52-.96.52h-14.43c-1.42,0-2.14-.18-2.14-.55,0-.47.29-.7.88-.7h2.21c1.42,0,2.18-.32,2.28-.96.05-.29.07-2.55.07-6.77v-36.67c0-1.37-.66-2.01-1.99-1.91h-3.09c-.44,0-.66-.18-.66-.55,0-.47.54-.7,1.62-.7,2.7.05,5.15-.59,7.36-1.91.64-.39,1.13-.59,1.47-.59.39,0,.65.18.77.55.12.37.21,1.49.26,3.35,1.82-2.6,4.42-3.9,7.81-3.9,4.27,0,7.77,1.56,10.49,4.68,2.72,3.12,4.09,7.11,4.09,11.97ZM277.41,66.55c0-3.84-.59-7.11-1.78-9.82-1.58-3.74-4.02-5.61-7.32-5.61-1.73,0-3.21.6-4.44,1.81-1.23,1.21-1.9,2.67-2,4.39-.1,2.17-.07,6.72.07,13.66.05,3.49.12,5.6.22,6.31.1.71.42,1.44.96,2.18,1.43,2.02,3.28,3.03,5.55,3.03,2.56,0,4.49-1.08,5.77-3.25,1.97-3.3,2.96-7.53,2.96-12.7Z"/>
    <path class="st1" d="M319.97,66.51c0,4.91-1.39,9.01-4.17,12.3-2.78,3.29-6.24,4.93-10.38,4.93-3.25,0-5.76-1.18-7.54-3.53v17.16c0,1.08.04,1.72.11,1.92.07.19.31.37.71.52.75.15,2.19.22,4.32.22.6,0,.89.22.89.66,0,.34-.32.52-.96.52h-14.43c-1.42,0-2.14-.18-2.14-.55,0-.47.29-.7.88-.7h2.21c1.42,0,2.18-.32,2.28-.96.05-.29.07-2.55.07-6.77v-36.67c0-1.37-.66-2.01-1.99-1.91h-3.09c-.44,0-.66-.18-.66-.55,0-.47.54-.7,1.62-.7,2.7.05,5.15-.59,7.36-1.91.64-.39,1.13-.59,1.47-.59.39,0,.65.18.77.55.12.37.21,1.49.26,3.35,1.82-2.6,4.42-3.9,7.81-3.9,4.27,0,7.77,1.56,10.49,4.68,2.72,3.12,4.09,7.11,4.09,11.97ZM313.42,66.55c0-3.84-.59-7.11-1.78-9.82-1.58-3.74-4.02-5.61-7.32-5.61-1.73,0-3.21.6-4.44,1.81-1.23,1.21-1.9,2.67-2,4.39-.1,2.17-.07,6.72.07,13.66.05,3.49.12,5.6.22,6.31.1.71.42,1.44.96,2.18,1.43,2.02,3.28,3.03,5.55,3.03,2.56,0,4.49-1.08,5.77-3.25,1.97-3.3,2.96-7.53,2.96-12.7Z"/>
    <path class="st1" d="M340,82.42c0,.44-.42.66-1.25.66.05,0-.54-.05-1.77-.15-1.47-.1-2.7-.15-3.68-.15h-7.66c-.25.2-.54.3-.88.3-.54,0-.81-.18-.81-.55,0-.52.49-.78,1.47-.78,1.87-.05,2.88-.18,3.06-.4s.26-1.24.26-3.06v-22.31c-.05-1.23-.11-1.95-.18-2.17-.07-.22-.38-.33-.92-.33h-2.87c-.54,0-.81-.17-.81-.52,0-.3.41-.47,1.23-.52,3.24-.14,6.03-.91,8.36-2.29l.73-.43c.39.74.58,2.08.58,4.04,0-.1,0,.15,0,.73v22.92c0,1.96.04,3.11.11,3.45.07.34.33.56.77.66.74.2,1.82.29,3.24.29.69,0,1.03.2,1.03.59ZM334.48,36.54c0,2.21-1.1,3.31-3.31,3.31-.93,0-1.72-.31-2.36-.92-.64-.61-.96-1.36-.96-2.25,0-2.31,1.1-3.46,3.31-3.46s3.31,1.1,3.31,3.31Z"/>
    <path class="st1" d="M376.38,82.46c0,.37-.37.55-1.1.55h-13.55c-.64,0-.96-.17-.96-.51,0-.24.13-.39.4-.44.27-.05,1.22-.1,2.84-.15.93-.05,1.47-.18,1.62-.4.15-.22.22-1.02.22-2.39v-14.11c0-5.34-.2-8.52-.59-9.55-.84-2.2-2.5-3.31-5.01-3.31s-4.52,1.08-6.19,3.23c-.49.64-.74,1.52-.74,2.65v22.92c0,.59.52.91,1.57.95l2.25.07c.5,0,.75.17.75.51s-.29.51-.88.51h-13.4c-.74,0-1.1-.15-1.1-.45s.44-.49,1.32-.58h1.84c.74,0,1.18-.17,1.33-.51l.22-1.1v-16.01c0-5.58-.05-8.67-.15-9.25-.1-.59-.71-.88-1.84-.88h-2.14c-.98,0-1.47-.18-1.47-.55,0-.47.52-.7,1.55-.7,1.47-.05,3.07-.32,4.79-.81,1.72-.49,2.92-1.06,3.61-1.69.44-.39.79-.59,1.03-.59.34,0,.52.47.52,1.4v3.54c2.55-3.29,5.84-4.93,9.87-4.93,3.53,0,6.09,1.3,7.66,3.9.88,1.47,1.33,4.27,1.33,8.4v16.79c0,1.57.07,2.43.22,2.58.3.3,1.01.44,2.14.44h1.32c.49,0,.74.16.74.48Z"/>
    <path class="st1" d="M412.91,54.21c0,2.26-1.01,3.39-3.02,3.39-.69,0-1.31-.23-1.88-.7-.57-.47-.85-.99-.85-1.58,0-.2.07-.5.22-.92.15-.42.22-.75.22-.99,0-.64-.34-.96-1.03-.96-.59,0-1.15.31-1.69.92-.54.61-.81,1.24-.81,1.88,0,.15.12.98.37,2.5.25,1.52.37,2.68.37,3.46,0,3.34-1.15,6.14-3.46,8.4-2.31,2.26-5.18,3.39-8.62,3.39-.88,0-2.5-.37-4.86-1.1-.64-.2-1.06-.29-1.25-.29-1.03,0-1.96.42-2.8,1.25-.83.84-1.25,1.74-1.25,2.72,0,2.55,1.55,3.83,4.64,3.83,1.18,0,3.07-.22,5.67-.66,2.01-.34,3.85-.52,5.52-.52,2.99,0,5.34.79,7.03,2.36,1.69,1.57,2.54,3.76,2.54,6.55,0,4.22-1.8,7.73-5.41,10.53-3.61,2.8-8.16,4.2-13.66,4.2-4.08,0-7.28-.82-9.61-2.47-2.33-1.65-3.5-3.92-3.5-6.81s1.08-4.91,3.24-6.33c1.08-.69,2.8-1.3,5.15-1.84-3.49-1.38-5.23-3.49-5.23-6.33,0-3.54,2.26-5.99,6.78-7.36-2.95-2.31-4.42-5.35-4.42-9.13,0-3.54,1.13-6.37,3.39-8.51,2.26-2.14,5.23-3.2,8.91-3.2,2.01,0,3.65.27,4.9.81,1.25.54,2.71,1.62,4.38,3.24,1.57-2.31,3.51-3.46,5.82-3.46,2.8,0,4.2,1.25,4.2,3.76ZM404.88,89.71c0-4.08-2.4-6.11-7.19-6.11-1.37,0-3.39.22-6.06.66-2.67.44-4.66.66-5.98.66-2.5,1.32-3.74,3.66-3.74,7,0,2.5.89,4.52,2.68,6.04,1.79,1.52,4.15,2.28,7.08,2.28,3.72,0,6.85-1.02,9.39-3.06,2.55-2.04,3.82-4.53,3.82-7.47ZM399.21,61.51c0-7.12-1.96-10.68-5.89-10.68s-5.74,3.31-5.74,9.94c0,7.46,2.04,11.19,6.11,11.19,3.68,0,5.52-3.48,5.52-10.46Z"/>
    <path class="st1" d="M459.3,68.5c0,4.22-1.61,7.82-4.82,10.79-3.22,2.97-7.08,4.46-11.6,4.46-2.65,0-5.82-.81-9.5-2.43-.98-.44-1.72-.66-2.21-.66-.59,0-.96.68-1.1,2.04-.05.7-.37,1.05-.96,1.05-.49,0-.74-.29-.74-.88,0-.39.02-.69.07-.88.39-2.99.59-5.77.59-8.32,0-.49-.05-1.87-.15-4.12-.05-.29-.07-.69-.07-1.18,0-.74.3-1.1.88-1.1.49,0,.83.59,1.03,1.78,1.28,8.83,5.42,13.24,12.44,13.24,2.99,0,5.31-.85,6.96-2.54,1.64-1.69,2.47-4.09,2.47-7.18,0-2.75-.8-5.09-2.39-7.03-1.6-1.94-4.33-3.87-8.21-5.78-4.66-2.31-7.9-4.54-9.72-6.7-1.82-2.16-2.72-4.83-2.72-8.03,0-4.07,1.31-7.44,3.94-10.09,2.63-2.65,5.95-3.98,9.98-3.98,1.67,0,3.98.56,6.92,1.69,1.03.39,1.79.59,2.28.59.54,0,.9-.1,1.07-.29.17-.2.33-.71.48-1.55.1-.49.37-.74.81-.74.49,0,.74.29.74.88,0,.39-.03.69-.07.88-.15,1.18-.22,2.6-.22,4.27,0,2.36.12,4.22.37,5.6l.07,1.18c.05.54-.17.81-.66.81-.54,0-.91-.56-1.1-1.69-.54-2.9-1.82-5.31-3.83-7.25-2.01-1.94-4.27-2.91-6.78-2.91s-4.41.79-5.85,2.36c-1.45,1.57-2.17,3.71-2.17,6.41,0,3.14,1.06,5.67,3.17,7.59,1.18,1.08,3.73,2.6,7.66,4.57,4.61,2.31,7.93,4.65,9.94,7.03,2.01,2.38,3.02,5.09,3.02,8.14Z"/>
    <path class="st1" d="M483.75,78.52c0,.44-.61,1.23-1.84,2.36-2.11,1.91-4.62,2.87-7.51,2.87-2.7,0-4.74-.69-6.11-2.06-.79-.78-1.18-3.09-1.18-6.91v-21.9c-.05-.49-.32-.76-.81-.81h-2.8c-1.08,0-1.62-.17-1.62-.52s.27-.54.8-.59c3.8-.35,6.78-2.23,8.93-5.66.29-.45.66-.67,1.1-.67.34,0,.51.17.51.52v1.55c0,2.06.1,3.39.3,3.98.44.1,1.18.15,2.21.15,2.7,0,4.49-.12,5.38-.37.2-.05.37-.07.52-.07.39,0,.59.21.59.64,0,.71-1.99,1.06-5.96,1.06h-3.02v13.62c0,6.87.17,11.18.52,12.92.34,1.74,1.47,2.61,3.39,2.61,1.62,0,3.44-.91,5.45-2.72.2-.25.42-.37.66-.37.34,0,.52.12.52.37Z"/>
    <path class="st1" d="M515.49,66.96c0,4.76-1.45,8.75-4.34,11.97-2.9,3.22-6.51,4.82-10.83,4.82s-8.2-1.61-11.19-4.82c-3-3.22-4.49-7.2-4.49-11.97s1.46-8.98,4.38-12.22,6.57-4.86,10.94-4.86,8.11,1.63,11.08,4.9c2.97,3.27,4.45,7.33,4.45,12.19ZM508.79,66.88c0-5.4-.84-9.6-2.5-12.59-1.23-2.21-3.29-3.31-6.19-3.31s-4.9,1.41-6.44,4.23c-1.55,2.82-2.32,6.74-2.32,11.75s.82,8.83,2.47,11.6c1.64,2.78,3.94,4.16,6.89,4.16,2.26,0,3.93-.86,5.01-2.58,2.06-3.24,3.09-7.66,3.09-13.26Z"/>
    <path class="st1" d="M553.42,82.46c0,.37-.37.55-1.1.55h-13.55c-.64,0-.96-.17-.96-.51,0-.24.13-.39.4-.44.27-.05,1.22-.1,2.84-.15.93-.05,1.47-.18,1.62-.4.15-.22.22-1.02.22-2.39v-14.11c0-5.34-.2-8.52-.59-9.55-.84-2.2-2.5-3.31-5.01-3.31s-4.52,1.08-6.19,3.23c-.49.64-.74,1.52-.74,2.65v22.92c0,.59.52.91,1.57.95l2.25.07c.5,0,.75.17.75.51s-.29.51-.88.51h-13.4c-.74,0-1.1-.15-1.1-.45s.44-.49,1.32-.58h1.84c.74,0,1.18-.17,1.33-.51l.22-1.1v-16.01c0-5.58-.05-8.67-.15-9.25-.1-.59-.71-.88-1.84-.88h-2.14c-.98,0-1.47-.18-1.47-.55,0-.47.52-.7,1.55-.7,1.47-.05,3.07-.32,4.79-.81,1.72-.49,2.92-1.06,3.61-1.69.44-.39.79-.59,1.03-.59.34,0,.52.47.52,1.4v3.54c2.55-3.29,5.84-4.93,9.87-4.93,3.53,0,6.09,1.3,7.66,3.9.88,1.47,1.33,4.27,1.33,8.4v16.79c0,1.57.07,2.43.22,2.58.3.3,1.01.44,2.14.44h1.32c.49,0,.74.16.74.48Z"/>
    <path class="st1" d="M583.47,74.83c0,.49-.38,1.36-1.14,2.61-.76,1.25-1.53,2.27-2.32,3.06-2.11,2.16-4.93,3.24-8.47,3.24-4.42,0-8.11-1.6-11.08-4.79-2.97-3.19-4.46-7.14-4.46-11.86s1.41-9.01,4.23-12.3c2.82-3.29,6.35-4.93,10.57-4.93,3.49,0,6.41,1.02,8.76,3.06,2.36,2.04,3.61,4.65,3.76,7.84-1.57.25-3.66.34-6.26.29h-5.15c-.34,0-3.29.07-8.84.22-.25,1.62-.37,3.16-.37,4.62,0,4.94.95,8.74,2.84,11.41,1.89,2.67,4.55,4,7.99,4,1.96,0,3.53-.44,4.71-1.33,1.18-.88,2.45-2.58,3.83-5.08.2-.39.47-.59.81-.59.39,0,.59.17.59.52ZM577.06,59.81c-.2-5.89-2.31-8.84-6.33-8.84s-6.46,2.95-7.44,8.84h13.77Z"/>
  </g>
</svg>